# xmcd CD database file
#
# Track frame offsets:
#	150
#	13095
#	26919
#	43203
#	59158
#	74146
#	87596
#	104057
#	121525
#	134848
#	148739
#	161764
#	173280
#
# Disc length: 2584 seconds
#
# Revision: 0
# Processed by: cddbd v1.5.2PL0 Copyright (c) Steve Scherf et al.
# Submitted via: CDex 1.51
#
DISCID=cc0a160d
DTITLE=Larry Pierce - Unplugged - Live In Manhattan
DYEAR=2009
DGENRE=Country
TTITLE0=Good Hard Fuckin'
TTITLE1=Nymphomaniac
TTITLE2=Keep Your Pussy Clean
TTITLE3=Peter on Your Mind
TTITLE4=Will You Swallow My Cum
TTITLE5=Mother Fucker
TTITLE6=What Does it Take
TTITLE7=Yeast Infection
TTITLE8=Gigolo
TTITLE9=Worthless Cunt
TTITLE10=Every Time I Shit
TTITLE11=Lickin' Man
TTITLE12=I Like to Fuck
EXTD=YEAR: 2009
EXTT0=
EXTT1=
EXTT2=
EXTT3=
EXTT4=
EXTT5=
EXTT6=
EXTT7=
EXTT8=
EXTT9=
EXTT10=
EXTT11=
EXTT12=
PLAYORDER=
